<?xml version="1.0" encoding="UTF-8" standalone="no"?>
<!-- Created with Inkscape (http://www.inkscape.org/) -->

<svg
   version="1.1"
   id="svg1"
   width="1165.8842"
   height="910.3822"
   viewBox="0 0 1165.8842 910.38221"
   sodipodi:docname="deco7.svg"
   inkscape:version="1.4.3 (0d15f75, 2025-12-25)"
   xmlns:inkscape="http://www.inkscape.org/namespaces/inkscape"
   xmlns:sodipodi="http://sodipodi.sourceforge.net/DTD/sodipodi-0.dtd"
   xmlns="http://www.w3.org/2000/svg"
   xmlns:svg="http://www.w3.org/2000/svg">
  <defs
     id="defs1" />
  <sodipodi:namedview
     id="namedview1"
     pagecolor="#ffffff"
     bordercolor="#000000"
     borderopacity="0.25"
     inkscape:showpageshadow="2"
     inkscape:pageopacity="0.0"
     inkscape:pagecheckerboard="0"
     inkscape:deskcolor="#d1d1d1"
     inkscape:zoom="0.1854196"
     inkscape:cx="1372.5626"
     inkscape:cy="29.662452"
     inkscape:window-width="1285"
     inkscape:window-height="713"
     inkscape:window-x="239"
     inkscape:window-y="171"
     inkscape:window-maximized="0"
     inkscape:current-layer="g1" />
  <g
     inkscape:groupmode="layer"
     inkscape:label="Image"
     id="g1"
     transform="translate(232.14734,165.92366)">
    <path
       style="fill:#000000;stroke-width:3.7817"
       d="M -46.222515,737.93408 C -77.11458,726.5315 -89.44676,718.94009 -108.46583,699.61836 c -30.37068,-30.85403 -49.80082,-73.17828 -53.80065,-117.19294 -3.50461,-38.56518 8.6095,-102.88545 25.64091,-136.14119 2.66299,-5.19984 9.36511,-18.58448 14.89358,-29.74363 5.5285,-11.15916 14.9017,-28.08151 20.82941,-37.60523 l 10.777659,-17.3158 -23.332259,-16.35797 c -39.14993,-27.44749 -74.77661,-67.94643 -94.80638,-107.77192 -9.71613,-19.31879 -18.49387,-39.37949 -19.50608,-44.57933 -5.81576,-29.87591 -5.83221,-39.97773 -0.0771,-47.27128 5.88909,-7.46322 6.07511,-7.42207 14.04497,3.10754 38.88321,51.37155 87.36456,85.44516 148.317518,104.24029 14.258638,4.39675 28.215865,7.99405 31.016031,7.99405 2.800152,0 -7.325419,-12.41664 -22.501298,-27.59253 -33.9038,-33.90372 -55.831371,-74.58025 -58.253221,-108.06179 -2.31666,-32.027944 5.11717,-36.292455 23.710476,-13.60176 24.146728,29.46783 57.883999,51.36943 99.1224015,64.34834 12.1320745,3.81831 16.6735895,3.93693 19.4741285,0.50867 2.008769,-2.45896 18.887356,-34.2518 37.507998,-70.65066 C 123.94254,-10.084881 144.8803,-41.893721 194.03332,-90.717137 c 24.11575,-23.954413 68.03905,-53.463203 87.05457,-58.485493 5.19984,-1.3734 12.85779,-3.90411 17.01766,-5.62388 26.63526,-11.01144 73.65086,-14.24831 113.45098,-7.81072 46.92334,7.58976 107.30194,48.08499 134.31916,90.086206 5.60372,8.711865 5.60372,8.711865 30.524,-0.684666 49.27289,-18.579226 106.78687,-25.284788 150.92876,-17.596789 35.93825,6.259244 40.204,7.430136 67.41409,18.503368 61.69086,25.105264 111.25306,77.7498729 130.29203,138.395435 15.54127,49.504266 9.7651,121.282016 -13.32481,165.580666 -9.00953,17.28539 -15.76743,22.52044 -10.07598,7.80531 11.00967,-28.46394 13.49273,-77.82976 5.76558,-114.61257 C 884.27465,14.7664 793.51537,-51.334627 670.60296,-47.621711 c -41.41793,1.251097 -54.77944,3.844959 -81.87796,15.89463 -6.55444,2.914374 -13.36151,5.355451 -15.1268,5.424659 -1.76567,0.06918 -7.26957,3.506586 -12.23078,7.6386 -8.24788,6.86893 -8.80304,9.3698443 -6.47993,29.18236 l 2.54092,21.669553 -11.03348,-17.385381 c -20.00066,-31.514188 -49.67263,-45.827037 -94.81479,-45.735742 -31.28221,0.06318 -29.97526,-4.048384 3.46593,-10.903252 20.98238,-4.300994 53.39761,-19.51497 60.9387,-28.601373 5.37151,-6.472185 -6.3041,-21.44824 -30.01384,-38.498873 -23.0869,-16.60268 -30.68055,-19.42784 -66.851,-24.87133 -81.96721,-12.33575 -158.86126,16.58873 -221.47584,83.310391 -18.4131,19.621154 -60.26024,77.546982 -60.26024,83.414067 0,1.93483 -2.97809,6.826342 -6.61799,10.870033 -6.05827,6.730409 -15.62673,22.992591 -30.999715,52.687477 -3.229581,6.238252 -6.72553,12.194432 -7.76879,13.235942 -1.043288,1.04156 -4.430706,6.99902 -7.52759,13.23883 -3.096898,6.23981 -11.177563,20.19759 -17.957051,31.01735 -6.779462,10.81978 -12.326301,20.72374 -12.326301,22.00889 0,1.2851 -5.105294,9.75685 -11.345103,18.82609 -6.239796,9.06923 -11.34509,18.31011 -11.34509,20.5353 0,2.22516 -1.701774,4.04575 -3.78171,4.04575 -2.079923,0 -3.781697,1.82058 -3.781697,4.04573 0,2.22519 -5.196882,11.59919 -11.548621,20.83115 -6.351792,9.23197 -10.3674645,18.69661 -8.9237536,21.03257 3.7745519,6.10737 83.5726506,1.91955 118.4460416,-6.2161 24.0361,-5.60731 30.20935,-8.82603 43.48954,-22.6745 15.21227,-15.8634 40.05842,-31.60944 40.05842,-25.38689 0,1.7442 -5.10529,8.06248 -11.3451,14.04059 -14.66392,14.04889 -14.29634,17.01764 2.10715,17.01764 36.65927,0 74.27357,21.34781 88.16073,50.03532 9.50908,19.64287 10.57968,49.03346 2.36015,64.79337 -7.16405,13.73639 -7.0869,14.70564 0.96888,12.20205 3.63988,-1.13123 13.42503,-3.08349 21.74477,-4.33833 52.76681,-7.95889 87.00178,-63.53528 68.08194,-110.52335 -5.66121,-14.0599 -5.66121,-14.0599 3.60547,-3.65399 16.55363,18.58826 22.64028,60.72184 11.80042,81.68426 -8.05616,15.57851 -37.95163,41.55161 -57.44402,49.90709 -20.46617,8.77274 -39.47035,9.43105 -54.08511,1.87359 -9.89406,-5.11645 -11.54855,-4.84174 -23.37052,3.88007 -20.19996,14.9033 -85.97037,31.81528 -124.18633,31.93301 -18.63357,0.0575 -50.600052,15.39738 -98.904037,47.46165 -76.68046,50.90062 -108.540979,116.73547 -82.544212,170.56506 8.604761,17.81725 19.560571,26.30035 40.2664017,31.17844 l 14.2441486,3.35577 -14.429991,0.37987 C -29.706323,673.39053 -53.065533,657.68388 -66.004093,633.47835 -76.607826,613.64081 -74.276492,569.7745 -61.200956,543.10361 -43.27543,506.5399 13.295116,452.29459 57.022689,429.7394 73.036819,421.47912 72.542968,417.5348 55.131834,414.63718 9.325164,407.01393 -15.181838,399.7641 -43.19016,385.551 l -21.746959,-11.03571 -12.290524,14.09836 c -6.759813,7.75412 -12.290551,15.9233 -12.290551,18.15375 0,2.23045 -2.97809,7.35434 -6.617972,11.38643 -12.493824,13.84004 -30.765304,63.46017 -38.208824,103.76439 -1.34443,7.27977 -2.34121,31.40164 -2.21501,53.60415 0.21934,38.60413 0.83205,41.58747 14.01823,68.26793 20.8971,42.28242 46.153204,64.38475 79.355849,69.4466 62.764754,9.56865 115.709307,-16.50878 129.42908,-63.74928 7.67111,-26.41344 5.248508,-40.3845 -10.017641,-57.7717 -17.537099,-19.9737 -39.769111,-21.27385 -57.670351,-3.37259 -6.605389,6.60537 -8.126346,30.11843 -2.185747,33.78993 2.079936,1.28548 3.781696,4.20231 3.781696,6.48183 0,10.1078 -14.8272818,-10.53479 -17.0601897,-23.75127 -4.7453125,-28.0872 21.9233107,-51.22217 55.3440417,-48.01086 62.842982,6.03838 82.068772,96.42706 31.563495,148.39313 -33.407909,34.37425 -92.9460014,48.66117 -136.220978,32.68799 z M 190.44109,391.07568 c 65.51854,-19.42499 90.70959,-51.19854 71.70919,-90.44792 -16.20913,-33.48373 -47.21301,-42.40163 -103.9671,-29.90496 -104.496857,23.0091 -169.582708,21.59437 -242.14643,-5.26338 -47.00249,-17.39683 -71.54295,-32.48801 -104.82456,-64.46179 -16.78964,-16.12989 -17.96307,-16.65811 -17.96307,-8.08629 0,5.04399 7.02167,23.34527 15.60367,40.66953 40.65766,82.0743 147.358894,149.60347 258.569528,163.64367 33.270722,4.20041 99.231502,0.90349 123.018772,-6.14886 z M -1.0902342,222.89292 C 14.5452,196.64566 15.361523,192.91035 5.4622363,192.91035 c -11.1962108,0 -64.9224833,-28.33495 -82.8707233,-43.70559 -8.939162,-7.65537 -17.164734,-13.00715 -18.279055,-11.89283 -2.928998,2.92895 10.718061,32.34052 26.331088,56.74761 10.45632,16.34583 47.057914,51.79461 53.47902,51.79461 0.6101,0 7.2643421,-10.33254 14.7871998,-22.96123 z M 476.72353,567.29862 C 451.2432,497.7166 440.0384,447.78832 437.25999,391.44958 c -3.73822,-75.80606 9.1918,-118.23419 47.92813,-157.27094 44.07457,-44.41644 102.60583,-50.23968 139.76896,-13.90553 19.06658,18.64102 24.53302,32.06851 24.58484,60.38959 0.0416,22.06795 -1.4102,27.41618 -11.19082,41.26189 -11.0123,15.58926 -35.39255,31.84993 -43.63438,29.10259 -2.29095,-0.76355 2.35941,-5.59501 10.33426,-10.73654 33.00289,-21.27811 37.54887,-68.968 9.37028,-98.30581 -15.54769,-16.18723 -56.74591,-18.77886 -79.04243,-4.97229 -13.66669,8.46287 -34.95198,28.33726 -34.95198,32.63531 0,1.87081 -3.47802,8.28585 -7.72866,14.25561 -22.92769,32.19883 -28.39527,126.12018 -10.76687,184.95767 l 4.34593,14.50524 23.14702,-17.06136 c 28.74054,-21.18437 92.4357,-53.41772 117.68951,-59.55765 2.07994,-0.5057 7.18523,-2.29656 11.34511,-3.97971 4.15987,-1.68312 16.07222,-6.31336 26.47189,-10.2894 85.67025,-32.7538 150.31499,-97.69133 160.23931,-160.96495 7.22721,-46.07737 -3.60282,-92.41324 -28.35972,-121.33583 -7.51007,-8.77414 -12.87365,-16.734397 -11.91841,-17.689429 3.66787,-3.668168 32.0068,20.627769 46.90178,40.210879 23.70482,31.16541 31.3934,55.99314 30.51566,98.54089 -0.96849,46.96341 -11.67184,69.61844 -51.57065,109.15683 -32.66972,32.37479 -65.06415,51.42155 -125.30625,73.67575 -92.85925,34.30327 -117.44861,44.64667 -138.5297,58.27203 -32.9473,21.29504 -55.05965,51.20416 -64.60882,87.3908 -2.21268,8.38394 -4.25441,11.1565 -5.57045,7.5634 z M 425.23796,191.65196 c 36.89048,-13.67032 62.10383,-41.29646 67.09757,-73.51742 7.14627,-46.112635 -17.30771,-80.072979 -58.25028,-80.894781 -15.92549,-0.319552 -16.6096,-0.730213 -9.5072,-5.705156 4.20942,-2.948365 15.90961,-6.338462 26.0007,-7.533588 45.86824,-5.432417 86.64404,37.862901 81.56635,86.606815 -4.92188,47.25165 -48.2976,83.7198 -101.67969,85.4877 -18.9085,0.62618 -18.9085,0.62618 -5.22745,-4.44357 z M 258.29407,129.78604 c -14.88514,-10.18658 -21.17146,-23.2418 -8.92933,-18.54398 4.698,1.80269 5.44148,0.81254 3.24696,-4.32252 -10.44316,-24.434703 -4.40303,-34.849275 21.86049,-37.693456 14.77132,-1.599614 17.75168,-0.30177 36.86968,16.054906 28.97539,24.79018 29.04497,28.41694 0.33657,17.60256 -3.92314,-1.47781 -4.76305,0.17813 -3.1736,6.25618 1.64087,6.27392 -0.80512,10.52879 -10.14857,17.65552 -14.3905,10.97603 -27.01721,11.91867 -40.06333,2.99079 z m 39.9185,-23.97253 c 6.01743,-6.649286 6.22316,-8.3728 1.53158,-12.830058 -8.46873,-8.045461 -22.43758,-11.208741 -22.43758,-5.081061 0,2.844101 2.12722,7.426471 4.72713,10.183062 3.87548,4.109047 2.85367,4.680427 -5.67255,3.171597 -11.19988,-1.981949 -13.07712,0.48409 -5.86163,7.69954 6.90802,6.90799 19.95602,5.42814 27.71305,-3.14308 z M 231.92618,70.664277 c 0,-7.543812 16.14483,-21.193937 29.64814,-25.066582 14.4858,-4.154541 15.84154,0.62107 1.97028,6.941231 -5.48877,2.500994 -13.27037,8.730313 -17.29182,13.842991 -8.02894,10.206763 -14.3266,12.08926 -14.3266,4.28236 z"
       id="path1"
       sodipodi:nodetypes="sssssscsssssssssssssssssssssssscssssscssssssssssssssssssssssssssssssssssssssscsssssscsssssssssssssssssssssssssssssssscssscsssssscscssssssssssssscsssssssscsssssssccssssssssssss" />
  </g>
</svg>
